<svg width="22" height="22" viewBox="0 0 22 22" fill="none" xmlns="http://www.w3.org/2000/svg">
<path d="M11 21C16.5228 21 21 16.5228 21 11C21 5.47715 16.5228 1 11 1C5.47715 1 1 5.47715 1 11C1 16.5228 5.47715 21 11 21Z" stroke="black" stroke-width="2" stroke-linecap="round" stroke-linejoin="round"/>
<path d="M17.7663 6.2377C17.3753 5.84531 16.9111 5.53404 16.4002 5.32168C15.8893 5.10931 15.3417 5 14.7887 5C14.2357 5 13.6881 5.10931 13.1772 5.32168C12.6663 5.53404 12.2021 5.84531 11.8112 6.2377L10.9998 7.05166L10.1884 6.2377C9.39874 5.44548 8.32768 5.00041 7.21089 5.00041C6.09409 5.00041 5.02303 5.44548 4.23334 6.2377C3.44365 7.02993 3 8.10441 3 9.22479C3 10.3452 3.44365 11.4196 4.23334 12.2119L5.0447 13.0258L10.9998 19L16.9549 13.0258L17.7663 12.2119C18.1574 11.8197 18.4677 11.354 18.6794 10.8415C18.891 10.3289 19 9.77958 19 9.22479C19 8.67 18.891 8.12064 18.6794 7.60811C18.4677 7.09558 18.1574 6.6299 17.7663 6.2377Z" stroke="black" stroke-width="2" stroke-linecap="round" stroke-linejoin="round"/>
</svg>
